<svg width="424" height="872" viewBox="0 0 424 872" fill="none" xmlns="http://www.w3.org/2000/svg">
<path fill-rule="evenodd" clip-rule="evenodd" d="M422.992 870.992C421.647 872.336 419.467 872.336 418.122 870.992L408 860.869L397.878 870.992C396.533 872.336 394.353 872.336 393.008 870.992C391.664 869.647 391.664 867.467 393.008 866.122L403.131 856L393.008 845.878C391.664 844.533 391.664 842.353 393.008 841.009C394.353 839.664 396.533 839.664 397.878 841.009L408 851.131L418.122 841.009C419.467 839.664 421.647 839.664 422.992 841.009C424.336 842.353 424.336 844.533 422.992 845.878L412.869 856L422.992 866.122C424.336 867.467 424.336 869.647 422.992 870.992Z" fill="#635316" fill-opacity="0.04"/>
<path fill-rule="evenodd" clip-rule="evenodd" d="M352 846.8C346.919 846.8 342.8 850.919 342.8 856C342.8 861.081 346.919 865.2 352 865.2C357.081 865.2 361.2 861.081 361.2 856C361.2 850.919 357.081 846.8 352 846.8ZM352 840C343.163 840 336 847.164 336 856C336 864.837 343.163 872 352 872C360.837 872 368 864.837 368 856C368 847.164 360.837 840 352 840Z" fill="#635316" fill-opacity="0.08"/>
<path fill-rule="evenodd" clip-rule="evenodd" d="M408 790.8C402.919 790.8 398.8 794.919 398.8 800C398.8 805.081 402.919 809.2 408 809.2C413.081 809.2 417.2 805.081 417.2 800C417.2 794.919 413.081 790.8 408 790.8ZM408 784C399.163 784 392 791.164 392 800C392 808.837 399.163 816 408 816C416.837 816 424 808.837 424 800C424 791.164 416.837 784 408 784Z" fill="#635316" fill-opacity="0.04"/>
<path fill-rule="evenodd" clip-rule="evenodd" d="M366.992 814.992C365.647 816.336 363.467 816.336 362.122 814.992L352 804.869L341.878 814.992C340.533 816.336 338.353 816.336 337.008 814.992C335.664 813.647 335.664 811.467 337.008 810.122L347.131 800L337.008 789.878C335.664 788.533 335.664 786.353 337.008 785.009C338.353 783.664 340.533 783.664 341.878 785.009L352 795.131L362.122 785.009C363.467 783.664 365.647 783.664 366.992 785.009C368.336 786.353 368.336 788.533 366.992 789.878L356.869 800L366.992 810.122C368.336 811.467 368.336 813.647 366.992 814.992Z" fill="#635316" fill-opacity="0.12"/>
<path fill-rule="evenodd" clip-rule="evenodd" d="M296 846.8C290.919 846.8 286.8 850.919 286.8 856C286.8 861.081 290.919 865.2 296 865.2C301.081 865.2 305.2 861.081 305.2 856C305.2 850.919 301.081 846.8 296 846.8ZM296 840C287.163 840 280 847.164 280 856C280 864.837 287.163 872 296 872C304.837 872 312 864.837 312 856C312 847.164 304.837 840 296 840Z" fill="#635316" fill-opacity="0.04"/>
<path fill-rule="evenodd" clip-rule="evenodd" d="M254.992 870.992C253.647 872.336 251.467 872.336 250.122 870.992L240 860.869L229.878 870.992C228.533 872.336 226.353 872.336 225.008 870.992C223.664 869.647 223.664 867.467 225.008 866.122L235.131 856L225.008 845.878C223.664 844.533 223.664 842.353 225.008 841.009C226.353 839.664 228.533 839.664 229.878 841.009L240 851.131L250.122 841.009C251.467 839.664 253.647 839.664 254.992 841.009C256.336 842.353 256.336 844.533 254.992 845.878L244.869 856L254.992 866.122C256.336 867.467 256.336 869.647 254.992 870.992Z" fill="#635316" fill-opacity="0.12"/>
<path fill-rule="evenodd" clip-rule="evenodd" d="M296 790.8C290.919 790.8 286.8 794.919 286.8 800C286.8 805.081 290.919 809.2 296 809.2C301.081 809.2 305.2 805.081 305.2 800C305.2 794.919 301.081 790.8 296 790.8ZM296 784C287.163 784 280 791.164 280 800C280 808.837 287.163 816 296 816C304.837 816 312 808.837 312 800C312 791.164 304.837 784 296 784Z" fill="#635316" fill-opacity="0.04"/>
<path fill-rule="evenodd" clip-rule="evenodd" d="M254.992 814.992C253.647 816.336 251.467 816.336 250.122 814.992L240 804.869L229.878 814.992C228.533 816.336 226.353 816.336 225.008 814.992C223.664 813.647 223.664 811.467 225.008 810.122L235.131 800L225.008 789.878C223.664 788.533 223.664 786.353 225.008 785.009C226.353 783.664 228.533 783.664 229.878 785.009L240 795.131L250.122 785.009C251.467 783.664 253.647 783.664 254.992 785.009C256.336 786.353 256.336 788.533 254.992 789.878L244.869 800L254.992 810.122C256.336 811.467 256.336 813.647 254.992 814.992Z" fill="#635316" fill-opacity="0.04"/>
<path fill-rule="evenodd" clip-rule="evenodd" d="M408 734.8C402.919 734.8 398.8 738.919 398.8 744C398.8 749.081 402.919 753.2 408 753.2C413.081 753.2 417.2 749.081 417.2 744C417.2 738.919 413.081 734.8 408 734.8ZM408 728C399.163 728 392 735.164 392 744C392 752.837 399.163 760 408 760C416.837 760 424 752.837 424 744C424 735.164 416.837 728 408 728Z" fill="#635316" fill-opacity="0.12"/>
<path fill-rule="evenodd" clip-rule="evenodd" d="M366.992 758.992C365.647 760.336 363.467 760.336 362.122 758.992L352 748.869L341.878 758.992C340.533 760.336 338.353 760.336 337.008 758.992C335.664 757.647 335.664 755.467 337.008 754.122L347.131 744L337.008 733.878C335.664 732.533 335.664 730.353 337.008 729.009C338.353 727.664 340.533 727.664 341.878 729.009L352 739.131L362.122 729.009C363.467 727.664 365.647 727.664 366.992 729.009C368.336 730.353 368.336 732.533 366.992 733.878L356.869 744L366.992 754.122C368.336 755.467 368.336 757.647 366.992 758.992Z" fill="#635316" fill-opacity="0.12"/>
<path fill-rule="evenodd" clip-rule="evenodd" d="M422.992 702.992C421.647 704.336 419.467 704.336 418.122 702.992L408 692.869L397.878 702.992C396.533 704.336 394.353 704.336 393.008 702.992C391.664 701.647 391.664 699.467 393.008 698.122L403.131 688L393.008 677.878C391.664 676.533 391.664 674.353 393.008 673.009C394.353 671.664 396.533 671.664 397.878 673.009L408 683.131L418.122 673.009C419.467 671.664 421.647 671.664 422.992 673.009C424.336 674.353 424.336 676.533 422.992 677.878L412.869 688L422.992 698.122C424.336 699.467 424.336 701.647 422.992 702.992Z" fill="#635316" fill-opacity="0.04"/>
<path fill-rule="evenodd" clip-rule="evenodd" d="M352 678.8C346.919 678.8 342.8 682.919 342.8 688C342.8 693.081 346.919 697.2 352 697.2C357.081 697.2 361.2 693.081 361.2 688C361.2 682.919 357.081 678.8 352 678.8ZM352 672C343.163 672 336 679.164 336 688C336 696.837 343.163 704 352 704C360.837 704 368 696.837 368 688C368 679.164 360.837 672 352 672Z" fill="#635316" fill-opacity="0.04"/>
<path fill-rule="evenodd" clip-rule="evenodd" d="M296 734.8C290.919 734.8 286.8 738.919 286.8 744C286.8 749.081 290.919 753.2 296 753.2C301.081 753.2 305.2 749.081 305.2 744C305.2 738.919 301.081 734.8 296 734.8ZM296 728C287.163 728 280 735.164 280 744C280 752.837 287.163 760 296 760C304.837 760 312 752.837 312 744C312 735.164 304.837 728 296 728Z" fill="#635316" fill-opacity="0.12"/>
<path fill-rule="evenodd" clip-rule="evenodd" d="M254.992 758.992C253.647 760.336 251.467 760.336 250.122 758.992L240 748.869L229.878 758.992C228.533 760.336 226.353 760.336 225.008 758.992C223.664 757.647 223.664 755.467 225.008 754.122L235.131 744L225.008 733.878C223.664 732.533 223.664 730.353 225.008 729.009C226.353 727.664 228.533 727.664 229.878 729.009L240 739.131L250.122 729.009C251.467 727.664 253.647 727.664 254.992 729.009C256.336 730.353 256.336 732.533 254.992 733.878L244.869 744L254.992 754.122C256.336 755.467 256.336 757.647 254.992 758.992Z" fill="#635316" fill-opacity="0.04"/>
<path fill-rule="evenodd" clip-rule="evenodd" d="M310.992 702.992C309.647 704.336 307.467 704.336 306.122 702.992L296 692.869L285.878 702.992C284.533 704.336 282.353 704.336 281.008 702.992C279.664 701.647 279.664 699.467 281.008 698.122L291.131 688L281.008 677.878C279.664 676.533 279.664 674.353 281.008 673.009C282.353 671.664 284.533 671.664 285.878 673.009L296 683.131L306.122 673.009C307.467 671.664 309.647 671.664 310.992 673.009C312.336 674.353 312.336 676.533 310.992 677.878L300.869 688L310.992 698.122C312.336 699.467 312.336 701.647 310.992 702.992Z" fill="#635316" fill-opacity="0.04"/>
<path fill-rule="evenodd" clip-rule="evenodd" d="M240 678.8C234.919 678.8 230.8 682.919 230.8 688C230.8 693.081 234.919 697.2 240 697.2C245.081 697.2 249.2 693.081 249.2 688C249.2 682.919 245.081 678.8 240 678.8ZM240 672C231.163 672 224 679.164 224 688C224 696.837 231.163 704 240 704C248.837 704 256 696.837 256 688C256 679.164 248.837 672 240 672Z" fill="#635316" fill-opacity="0.12"/>
<path fill-rule="evenodd" clip-rule="evenodd" d="M113.008 814.992C111.664 813.647 111.664 811.467 113.008 810.122L123.131 800L113.008 789.878C111.664 788.533 111.664 786.353 113.008 785.009C114.353 783.664 116.533 783.664 117.878 785.009L128 795.131L138.122 785.009C139.467 783.664 141.647 783.664 142.992 785.009C144.336 786.353 144.336 788.533 142.992 789.878L132.869 800L142.992 810.122C144.336 811.467 144.336 813.647 142.992 814.992C141.647 816.336 139.467 816.336 138.122 814.992L128 804.869L117.878 814.992C116.533 816.336 114.353 816.336 113.008 814.992Z" fill="#635316" fill-opacity="0.04"/>
<path fill-rule="evenodd" clip-rule="evenodd" d="M169.008 870.992C167.664 869.647 167.664 867.467 169.008 866.122L179.131 856L169.008 845.878C167.664 844.533 167.664 842.353 169.008 841.009C170.353 839.664 172.533 839.664 173.878 841.009L184 851.131L194.122 841.009C195.467 839.664 197.647 839.664 198.992 841.009C200.336 842.353 200.336 844.533 198.992 845.878L188.869 856L198.992 866.122C200.336 867.467 200.336 869.647 198.992 870.992C197.647 872.336 195.467 872.336 194.122 870.992L184 860.869L173.878 870.992C172.533 872.336 170.353 872.336 169.008 870.992Z" fill="#635316" fill-opacity="0.04"/>
<path fill-rule="evenodd" clip-rule="evenodd" d="M193.2 800C193.2 794.919 189.081 790.8 184 790.8C178.919 790.8 174.8 794.919 174.8 800C174.8 805.081 178.919 809.2 184 809.2C189.081 809.2 193.2 805.081 193.2 800ZM200 800C200 791.164 192.837 784 184 784C175.163 784 168 791.164 168 800C168 808.837 175.163 816 184 816C192.837 816 200 808.837 200 800Z" fill="#635316" fill-opacity="0.08"/>
<path fill-rule="evenodd" clip-rule="evenodd" d="M113.008 702.992C111.664 701.647 111.664 699.467 113.008 698.122L123.131 688L113.008 677.878C111.664 676.533 111.664 674.353 113.008 673.009C114.353 671.664 116.533 671.664 117.878 673.009L128 683.131L138.122 673.009C139.467 671.664 141.647 671.664 142.992 673.009C144.336 674.353 144.336 676.533 142.992 677.878L132.869 688L142.992 698.122C144.336 699.467 144.336 701.647 142.992 702.992C141.647 704.336 139.467 704.336 138.122 702.992L128 692.869L117.878 702.992C116.533 704.336 114.353 704.336 113.008 702.992Z" fill="#635316" fill-opacity="0.04"/>
<path fill-rule="evenodd" clip-rule="evenodd" d="M169.008 758.992C167.664 757.647 167.664 755.467 169.008 754.122L179.131 744L169.008 733.878C167.664 732.533 167.664 730.353 169.008 729.009C170.353 727.664 172.533 727.664 173.878 729.009L184 739.131L194.122 729.009C195.467 727.664 197.647 727.664 198.992 729.009C200.336 730.353 200.336 732.533 198.992 733.878L188.869 744L198.992 754.122C200.336 755.467 200.336 757.647 198.992 758.992C197.647 760.336 195.467 760.336 194.122 758.992L184 748.869L173.878 758.992C172.533 760.336 170.353 760.336 169.008 758.992Z" fill="#635316" fill-opacity="0.04"/>
<path fill-rule="evenodd" clip-rule="evenodd" d="M193.2 688C193.2 682.919 189.081 678.8 184 678.8C178.919 678.8 174.8 682.919 174.8 688C174.8 693.081 178.919 697.2 184 697.2C189.081 697.2 193.2 693.081 193.2 688ZM200 688C200 679.164 192.837 672 184 672C175.163 672 168 679.164 168 688C168 696.837 175.163 704 184 704C192.837 704 200 696.837 200 688Z" fill="#635316" fill-opacity="0.04"/>
<path fill-rule="evenodd" clip-rule="evenodd" d="M225.008 646.992C223.664 645.647 223.664 643.467 225.008 642.122L235.131 632L225.008 621.878C223.664 620.533 223.664 618.353 225.008 617.009C226.353 615.664 228.533 615.664 229.878 617.009L240 627.131L250.122 617.009C251.467 615.664 253.647 615.664 254.992 617.009C256.336 618.353 256.336 620.533 254.992 621.878L244.869 632L254.992 642.122C256.336 643.467 256.336 645.647 254.992 646.992C253.647 648.336 251.467 648.336 250.122 646.992L240 636.869L229.878 646.992C228.533 648.336 226.353 648.336 225.008 646.992Z" fill="#635316" fill-opacity="0.04"/>
<path fill-rule="evenodd" clip-rule="evenodd" d="M249.2 576C249.2 570.919 245.081 566.8 240 566.8C234.919 566.8 230.8 570.919 230.8 576C230.8 581.081 234.919 585.2 240 585.2C245.081 585.2 249.2 581.081 249.2 576ZM256 576C256 567.164 248.837 560 240 560C231.163 560 224 567.164 224 576C224 584.837 231.163 592 240 592C248.837 592 256 584.837 256 576Z" fill="#635316" fill-opacity="0.08"/>
<path fill-rule="evenodd" clip-rule="evenodd" d="M305.2 632C305.2 626.919 301.081 622.8 296 622.8C290.919 622.8 286.8 626.919 286.8 632C286.8 637.081 290.919 641.2 296 641.2C301.081 641.2 305.2 637.081 305.2 632ZM312 632C312 623.164 304.837 616 296 616C287.163 616 280 623.164 280 632C280 640.837 287.163 648 296 648C304.837 648 312 640.837 312 632Z" fill="#635316" fill-opacity="0.12"/>
<path fill-rule="evenodd" clip-rule="evenodd" d="M281.008 590.992C279.664 589.647 279.664 587.467 281.008 586.122L291.131 576L281.008 565.878C279.664 564.533 279.664 562.353 281.008 561.009C282.353 559.664 284.533 559.664 285.878 561.009L296 571.131L306.122 561.009C307.467 559.664 309.647 559.664 310.992 561.009C312.336 562.353 312.336 564.533 310.992 565.878L300.869 576L310.992 586.122C312.336 587.467 312.336 589.647 310.992 590.992C309.647 592.336 307.467 592.336 306.122 590.992L296 580.869L285.878 590.992C284.533 592.336 282.353 592.336 281.008 590.992Z" fill="#635316" fill-opacity="0.04"/>
<path fill-rule="evenodd" clip-rule="evenodd" d="M249.2 520C249.2 514.919 245.081 510.8 240 510.8C234.919 510.8 230.8 514.919 230.8 520C230.8 525.081 234.919 529.2 240 529.2C245.081 529.2 249.2 525.081 249.2 520ZM256 520C256 511.164 248.837 504 240 504C231.163 504 224 511.164 224 520C224 528.837 231.163 536 240 536C248.837 536 256 528.837 256 520Z" fill="#635316" fill-opacity="0.04"/>
<path fill-rule="evenodd" clip-rule="evenodd" d="M225.008 478.992C223.664 477.647 223.664 475.467 225.008 474.122L235.131 464L225.008 453.878C223.664 452.533 223.664 450.353 225.008 449.009C226.353 447.664 228.533 447.664 229.878 449.009L240 459.131L250.122 449.009C251.467 447.664 253.647 447.664 254.992 449.009C256.336 450.353 256.336 452.533 254.992 453.878L244.869 464L254.992 474.122C256.336 475.467 256.336 477.647 254.992 478.992C253.647 480.336 251.467 480.336 250.122 478.992L240 468.869L229.878 478.992C228.533 480.336 226.353 480.336 225.008 478.992Z" fill="#635316" fill-opacity="0.04"/>
<path fill-rule="evenodd" clip-rule="evenodd" d="M305.2 520C305.2 514.919 301.081 510.8 296 510.8C290.919 510.8 286.8 514.919 286.8 520C286.8 525.081 290.919 529.2 296 529.2C301.081 529.2 305.2 525.081 305.2 520ZM312 520C312 511.164 304.837 504 296 504C287.163 504 280 511.164 280 520C280 528.837 287.163 536 296 536C304.837 536 312 528.837 312 520Z" fill="#635316" fill-opacity="0.12"/>
<path fill-rule="evenodd" clip-rule="evenodd" d="M281.008 478.992C279.664 477.647 279.664 475.467 281.008 474.122L291.131 464L281.008 453.878C279.664 452.533 279.664 450.353 281.008 449.009C282.353 447.664 284.533 447.664 285.878 449.009L296 459.131L306.122 449.009C307.467 447.664 309.647 447.664 310.992 449.009C312.336 450.353 312.336 452.533 310.992 453.878L300.869 464L310.992 474.122C312.336 475.467 312.336 477.647 310.992 478.992C309.647 480.336 307.467 480.336 306.122 478.992L296 468.869L285.878 478.992C284.533 480.336 282.353 480.336 281.008 478.992Z" fill="#635316" fill-opacity="0.04"/>
<path fill-rule="evenodd" clip-rule="evenodd" d="M361.2 632C361.2 626.919 357.081 622.8 352 622.8C346.919 622.8 342.8 626.919 342.8 632C342.8 637.081 346.919 641.2 352 641.2C357.081 641.2 361.2 637.081 361.2 632ZM368 632C368 623.164 360.837 616 352 616C343.163 616 336 623.164 336 632C336 640.837 343.163 648 352 648C360.837 648 368 640.837 368 632Z" fill="#635316" fill-opacity="0.04"/>
<path fill-rule="evenodd" clip-rule="evenodd" d="M337.008 590.992C335.664 589.647 335.664 587.467 337.008 586.122L347.131 576L337.008 565.878C335.664 564.533 335.664 562.353 337.008 561.009C338.353 559.664 340.533 559.664 341.878 561.009L352 571.131L362.122 561.009C363.467 559.664 365.647 559.664 366.992 561.009C368.336 562.353 368.336 564.533 366.992 565.878L356.869 576L366.992 586.122C368.336 587.467 368.336 589.647 366.992 590.992C365.647 592.336 363.467 592.336 362.122 590.992L352 580.869L341.878 590.992C340.533 592.336 338.353 592.336 337.008 590.992Z" fill="#635316" fill-opacity="0.04"/>
<path fill-rule="evenodd" clip-rule="evenodd" d="M393.008 646.992C391.664 645.647 391.664 643.467 393.008 642.122L403.131 632L393.008 621.878C391.664 620.533 391.664 618.353 393.008 617.009C394.353 615.664 396.533 615.664 397.878 617.009L408 627.131L418.122 617.009C419.467 615.664 421.647 615.664 422.992 617.009C424.336 618.353 424.336 620.533 422.992 621.878L412.869 632L422.992 642.122C424.336 643.467 424.336 645.647 422.992 646.992C421.647 648.336 419.467 648.336 418.122 646.992L408 636.869L397.878 646.992C396.533 648.336 394.353 648.336 393.008 646.992Z" fill="#635316" fill-opacity="0.08"/>
<path fill-rule="evenodd" clip-rule="evenodd" d="M417.2 576C417.2 570.919 413.081 566.8 408 566.8C402.919 566.8 398.8 570.919 398.8 576C398.8 581.081 402.919 585.2 408 585.2C413.081 585.2 417.2 581.081 417.2 576ZM424 576C424 567.164 416.837 560 408 560C399.163 560 392 567.164 392 576C392 584.837 399.163 592 408 592C416.837 592 424 584.837 424 576Z" fill="#635316" fill-opacity="0.04"/>
<path fill-rule="evenodd" clip-rule="evenodd" d="M361.2 520C361.2 514.919 357.081 510.8 352 510.8C346.919 510.8 342.8 514.919 342.8 520C342.8 525.081 346.919 529.2 352 529.2C357.081 529.2 361.2 525.081 361.2 520ZM368 520C368 511.164 360.837 504 352 504C343.163 504 336 511.164 336 520C336 528.837 343.163 536 352 536C360.837 536 368 528.837 368 520Z" fill="#635316" fill-opacity="0.04"/>
<path fill-rule="evenodd" clip-rule="evenodd" d="M337.008 478.992C335.664 477.647 335.664 475.467 337.008 474.122L347.131 464L337.008 453.878C335.664 452.533 335.664 450.353 337.008 449.009C338.353 447.664 340.533 447.664 341.878 449.009L352 459.131L362.122 449.009C363.467 447.664 365.647 447.664 366.992 449.009C368.336 450.353 368.336 452.533 366.992 453.878L356.869 464L366.992 474.122C368.336 475.467 368.336 477.647 366.992 478.992C365.647 480.336 363.467 480.336 362.122 478.992L352 468.869L341.878 478.992C340.533 480.336 338.353 480.336 337.008 478.992Z" fill="#635316" fill-opacity="0.04"/>
<path fill-rule="evenodd" clip-rule="evenodd" d="M393.008 534.992C391.664 533.647 391.664 531.467 393.008 530.122L403.131 520L393.008 509.878C391.664 508.533 391.664 506.353 393.008 505.009C394.353 503.664 396.533 503.664 397.878 505.009L408 515.131L418.122 505.009C419.467 503.664 421.647 503.664 422.992 505.009C424.336 506.353 424.336 508.533 422.992 509.878L412.869 520L422.992 530.122C424.336 531.467 424.336 533.647 422.992 534.992C421.647 536.336 419.467 536.336 418.122 534.992L408 524.869L397.878 534.992C396.533 536.336 394.353 536.336 393.008 534.992Z" fill="#635316" fill-opacity="0.08"/>
<path fill-rule="evenodd" clip-rule="evenodd" d="M417.2 464C417.2 458.919 413.081 454.8 408 454.8C402.919 454.8 398.8 458.919 398.8 464C398.8 469.081 402.919 473.2 408 473.2C413.081 473.2 417.2 469.081 417.2 464ZM424 464C424 455.164 416.837 448 408 448C399.163 448 392 455.164 392 464C392 472.837 399.163 480 408 480C416.837 480 424 472.837 424 464Z" fill="#635316" fill-opacity="0.04"/>
<path fill-rule="evenodd" clip-rule="evenodd" d="M198.992 646.992C197.647 648.336 195.467 648.336 194.122 646.992L184 636.869L173.878 646.992C172.533 648.336 170.353 648.336 169.008 646.992C167.664 645.647 167.664 643.467 169.008 642.122L179.131 632L169.008 621.878C167.664 620.533 167.664 618.353 169.008 617.009C170.353 615.664 172.533 615.664 173.878 617.009L184 627.131L194.122 617.009C195.467 615.664 197.647 615.664 198.992 617.009C200.336 618.353 200.336 620.533 198.992 621.878L188.869 632L198.992 642.122C200.336 643.467 200.336 645.647 198.992 646.992Z" fill="#635316" fill-opacity="0.04"/>
<path fill-rule="evenodd" clip-rule="evenodd" d="M184 510.8C178.919 510.8 174.8 514.919 174.8 520C174.8 525.081 178.919 529.2 184 529.2C189.081 529.2 193.2 525.081 193.2 520C193.2 514.919 189.081 510.8 184 510.8ZM184 504C175.163 504 168 511.164 168 520C168 528.837 175.163 536 184 536C192.837 536 200 528.837 200 520C200 511.164 192.837 504 184 504Z" fill="#635316" fill-opacity="0.04"/>
<path fill-rule="evenodd" clip-rule="evenodd" d="M142.992 534.992C141.647 536.336 139.467 536.336 138.122 534.992L128 524.869L117.878 534.992C116.533 536.336 114.353 536.336 113.008 534.992C111.664 533.647 111.664 531.467 113.008 530.122L123.131 520L113.008 509.878C111.664 508.533 111.664 506.353 113.008 505.009C114.353 503.664 116.533 503.664 117.878 505.009L128 515.131L138.122 505.009C139.467 503.664 141.647 503.664 142.992 505.009C144.336 506.353 144.336 508.533 142.992 509.878L132.869 520L142.992 530.122C144.336 531.467 144.336 533.647 142.992 534.992Z" fill="#635316" fill-opacity="0.08"/>
<path fill-rule="evenodd" clip-rule="evenodd" d="M198.992 478.992C197.647 480.336 195.467 480.336 194.122 478.992L184 468.869L173.878 478.992C172.533 480.336 170.353 480.336 169.008 478.992C167.664 477.647 167.664 475.467 169.008 474.122L179.131 464L169.008 453.878C167.664 452.533 167.664 450.353 169.008 449.009C170.353 447.664 172.533 447.664 173.878 449.009L184 459.131L194.122 449.009C195.467 447.664 197.647 447.664 198.992 449.009C200.336 450.353 200.336 452.533 198.992 453.878L188.869 464L198.992 474.122C200.336 475.467 200.336 477.647 198.992 478.992Z" fill="#635316" fill-opacity="0.12"/>
<path fill-rule="evenodd" clip-rule="evenodd" d="M422.992 422.992C421.647 424.336 419.467 424.336 418.122 422.992L408 412.869L397.878 422.992C396.533 424.336 394.353 424.336 393.008 422.992C391.664 421.647 391.664 419.467 393.008 418.122L403.131 408L393.008 397.878C391.664 396.533 391.664 394.353 393.008 393.008C394.353 391.664 396.533 391.664 397.878 393.008L408 403.131L418.122 393.008C419.467 391.664 421.647 391.664 422.992 393.008C424.336 394.353 424.336 396.533 422.992 397.878L412.869 408L422.992 418.122C424.336 419.467 424.336 421.647 422.992 422.992Z" fill="#635316" fill-opacity="0.04"/>
<path fill-rule="evenodd" clip-rule="evenodd" d="M352 398.8C346.919 398.8 342.8 402.919 342.8 408C342.8 413.081 346.919 417.2 352 417.2C357.081 417.2 361.2 413.081 361.2 408C361.2 402.919 357.081 398.8 352 398.8ZM352 392C343.163 392 336 399.163 336 408C336 416.837 343.163 424 352 424C360.837 424 368 416.837 368 408C368 399.163 360.837 392 352 392Z" fill="#635316" fill-opacity="0.12"/>
<path fill-rule="evenodd" clip-rule="evenodd" d="M408 342.8C402.919 342.8 398.8 346.919 398.8 352C398.8 357.081 402.919 361.2 408 361.2C413.081 361.2 417.2 357.081 417.2 352C417.2 346.919 413.081 342.8 408 342.8ZM408 336C399.163 336 392 343.163 392 352C392 360.837 399.163 368 408 368C416.837 368 424 360.837 424 352C424 343.163 416.837 336 408 336Z" fill="#635316" fill-opacity="0.12"/>
<path fill-rule="evenodd" clip-rule="evenodd" d="M366.992 366.992C365.647 368.336 363.467 368.336 362.122 366.992L352 356.869L341.878 366.992C340.533 368.336 338.353 368.336 337.008 366.992C335.664 365.647 335.664 363.467 337.008 362.122L347.131 352L337.008 341.878C335.664 340.533 335.664 338.353 337.008 337.008C338.353 335.664 340.533 335.664 341.878 337.008L352 347.131L362.122 337.008C363.467 335.664 365.647 335.664 366.992 337.008C368.336 338.353 368.336 340.533 366.992 341.878L356.869 352L366.992 362.122C368.336 363.467 368.336 365.647 366.992 366.992Z" fill="#635316" fill-opacity="0.04"/>
<path fill-rule="evenodd" clip-rule="evenodd" d="M296 398.8C290.919 398.8 286.8 402.919 286.8 408C286.8 413.081 290.919 417.2 296 417.2C301.081 417.2 305.2 413.081 305.2 408C305.2 402.919 301.081 398.8 296 398.8ZM296 392C287.163 392 280 399.163 280 408C280 416.837 287.163 424 296 424C304.837 424 312 416.837 312 408C312 399.163 304.837 392 296 392Z" fill="#635316" fill-opacity="0.12"/>
<path fill-rule="evenodd" clip-rule="evenodd" d="M254.992 422.992C253.647 424.336 251.467 424.336 250.122 422.992L240 412.869L229.878 422.992C228.533 424.336 226.353 424.336 225.008 422.992C223.664 421.647 223.664 419.467 225.008 418.122L235.131 408L225.008 397.878C223.664 396.533 223.664 394.353 225.008 393.008C226.353 391.664 228.533 391.664 229.878 393.008L240 403.131L250.122 393.008C251.467 391.664 253.647 391.664 254.992 393.008C256.336 394.353 256.336 396.533 254.992 397.878L244.869 408L254.992 418.122C256.336 419.467 256.336 421.647 254.992 422.992Z" fill="#635316" fill-opacity="0.04"/>
<path fill-rule="evenodd" clip-rule="evenodd" d="M296 342.8C290.919 342.8 286.8 346.919 286.8 352C286.8 357.081 290.919 361.2 296 361.2C301.081 361.2 305.2 357.081 305.2 352C305.2 346.919 301.081 342.8 296 342.8ZM296 336C287.163 336 280 343.163 280 352C280 360.837 287.163 368 296 368C304.837 368 312 360.837 312 352C312 343.163 304.837 336 296 336Z" fill="#635316" fill-opacity="0.04"/>
<path fill-rule="evenodd" clip-rule="evenodd" d="M254.992 366.992C253.647 368.336 251.467 368.336 250.122 366.992L240 356.869L229.878 366.992C228.533 368.336 226.353 368.336 225.008 366.992C223.664 365.647 223.664 363.467 225.008 362.122L235.131 352L225.008 341.878C223.664 340.533 223.664 338.353 225.008 337.008C226.353 335.664 228.533 335.664 229.878 337.008L240 347.131L250.122 337.008C251.467 335.664 253.647 335.664 254.992 337.008C256.336 338.353 256.336 340.533 254.992 341.878L244.869 352L254.992 362.122C256.336 363.467 256.336 365.647 254.992 366.992Z" fill="#635316" fill-opacity="0.08"/>
<path fill-rule="evenodd" clip-rule="evenodd" d="M408 286.8C402.919 286.8 398.8 290.919 398.8 296C398.8 301.081 402.919 305.2 408 305.2C413.081 305.2 417.2 301.081 417.2 296C417.2 290.919 413.081 286.8 408 286.8ZM408 280C399.163 280 392 287.163 392 296C392 304.837 399.163 312 408 312C416.837 312 424 304.837 424 296C424 287.163 416.837 280 408 280Z" fill="#635316" fill-opacity="0.04"/>
<path fill-rule="evenodd" clip-rule="evenodd" d="M366.992 310.992C365.647 312.336 363.467 312.336 362.122 310.992L352 300.869L341.878 310.992C340.533 312.336 338.353 312.336 337.008 310.992C335.664 309.647 335.664 307.467 337.008 306.122L347.131 296L337.008 285.878C335.664 284.533 335.664 282.353 337.008 281.008C338.353 279.664 340.533 279.664 341.878 281.008L352 291.131L362.122 281.008C363.467 279.664 365.647 279.664 366.992 281.008C368.336 282.353 368.336 284.533 366.992 285.878L356.869 296L366.992 306.122C368.336 307.467 368.336 309.647 366.992 310.992Z" fill="#635316" fill-opacity="0.12"/>
<path fill-rule="evenodd" clip-rule="evenodd" d="M422.992 254.992C421.647 256.336 419.467 256.336 418.122 254.992L408 244.869L397.878 254.992C396.533 256.336 394.353 256.336 393.008 254.992C391.664 253.647 391.664 251.467 393.008 250.122L403.131 240L393.008 229.878C391.664 228.533 391.664 226.353 393.008 225.008C394.353 223.664 396.533 223.664 397.878 225.008L408 235.131L418.122 225.008C419.467 223.664 421.647 223.664 422.992 225.008C424.336 226.353 424.336 228.533 422.992 229.878L412.869 240L422.992 250.122C424.336 251.467 424.336 253.647 422.992 254.992Z" fill="#635316" fill-opacity="0.08"/>
<path fill-rule="evenodd" clip-rule="evenodd" d="M352 230.8C346.919 230.8 342.8 234.919 342.8 240C342.8 245.081 346.919 249.2 352 249.2C357.081 249.2 361.2 245.081 361.2 240C361.2 234.919 357.081 230.8 352 230.8ZM352 224C343.163 224 336 231.163 336 240C336 248.837 343.163 256 352 256C360.837 256 368 248.837 368 240C368 231.163 360.837 224 352 224Z" fill="#635316" fill-opacity="0.04"/>
<path fill-rule="evenodd" clip-rule="evenodd" d="M296 286.8C290.919 286.8 286.8 290.919 286.8 296C286.8 301.081 290.919 305.2 296 305.2C301.081 305.2 305.2 301.081 305.2 296C305.2 290.919 301.081 286.8 296 286.8ZM296 280C287.163 280 280 287.163 280 296C280 304.837 287.163 312 296 312C304.837 312 312 304.837 312 296C312 287.163 304.837 280 296 280Z" fill="#635316" fill-opacity="0.04"/>
<path fill-rule="evenodd" clip-rule="evenodd" d="M254.992 310.992C253.647 312.336 251.467 312.336 250.122 310.992L240 300.869L229.878 310.992C228.533 312.336 226.353 312.336 225.008 310.992C223.664 309.647 223.664 307.467 225.008 306.122L235.131 296L225.008 285.878C223.664 284.533 223.664 282.353 225.008 281.008C226.353 279.664 228.533 279.664 229.878 281.008L240 291.131L250.122 281.008C251.467 279.664 253.647 279.664 254.992 281.008C256.336 282.353 256.336 284.533 254.992 285.878L244.869 296L254.992 306.122C256.336 307.467 256.336 309.647 254.992 310.992Z" fill="#635316" fill-opacity="0.04"/>
<path fill-rule="evenodd" clip-rule="evenodd" d="M310.992 254.992C309.647 256.336 307.467 256.336 306.122 254.992L296 244.869L285.878 254.992C284.533 256.336 282.353 256.336 281.008 254.992C279.664 253.647 279.664 251.467 281.008 250.122L291.131 240L281.008 229.878C279.664 228.533 279.664 226.353 281.008 225.008C282.353 223.664 284.533 223.664 285.878 225.008L296 235.131L306.122 225.008C307.467 223.664 309.647 223.664 310.992 225.008C312.336 226.353 312.336 228.533 310.992 229.878L300.869 240L310.992 250.122C312.336 251.467 312.336 253.647 310.992 254.992Z" fill="#635316" fill-opacity="0.12"/>
<path fill-rule="evenodd" clip-rule="evenodd" d="M240 230.8C234.919 230.8 230.8 234.919 230.8 240C230.8 245.081 234.919 249.2 240 249.2C245.081 249.2 249.2 245.081 249.2 240C249.2 234.919 245.081 230.8 240 230.8ZM240 224C231.163 224 224 231.163 224 240C224 248.837 231.163 256 240 256C248.837 256 256 248.837 256 240C256 231.163 248.837 224 240 224Z" fill="#635316" fill-opacity="0.04"/>
<path fill-rule="evenodd" clip-rule="evenodd" d="M137.2 408C137.2 402.919 133.081 398.8 128 398.8C122.919 398.8 118.8 402.919 118.8 408C118.8 413.081 122.919 417.2 128 417.2C133.081 417.2 137.2 413.081 137.2 408ZM144 408C144 399.163 136.837 392 128 392C119.163 392 112 399.163 112 408C112 416.837 119.163 424 128 424C136.837 424 144 416.837 144 408Z" fill="#635316" fill-opacity="0.04"/>
<path fill-rule="evenodd" clip-rule="evenodd" d="M169.008 422.992C167.664 421.647 167.664 419.467 169.008 418.122L179.131 408L169.008 397.878C167.664 396.533 167.664 394.353 169.008 393.008C170.353 391.664 172.533 391.664 173.878 393.008L184 403.131L194.122 393.008C195.467 391.664 197.647 391.664 198.992 393.008C200.336 394.353 200.336 396.533 198.992 397.878L188.869 408L198.992 418.122C200.336 419.467 200.336 421.647 198.992 422.992C197.647 424.336 195.467 424.336 194.122 422.992L184 412.869L173.878 422.992C172.533 424.336 170.353 424.336 169.008 422.992Z" fill="#635316" fill-opacity="0.12"/>
<path fill-rule="evenodd" clip-rule="evenodd" d="M193.2 352C193.2 346.919 189.081 342.8 184 342.8C178.919 342.8 174.8 346.919 174.8 352C174.8 357.081 178.919 361.2 184 361.2C189.081 361.2 193.2 357.081 193.2 352ZM200 352C200 343.163 192.837 336 184 336C175.163 336 168 343.163 168 352C168 360.837 175.163 368 184 368C192.837 368 200 360.837 200 352Z" fill="#635316" fill-opacity="0.04"/>
<path fill-rule="evenodd" clip-rule="evenodd" d="M137.2 296C137.2 290.919 133.081 286.8 128 286.8C122.919 286.8 118.8 290.919 118.8 296C118.8 301.081 122.919 305.2 128 305.2C133.081 305.2 137.2 301.081 137.2 296ZM144 296C144 287.163 136.837 280 128 280C119.163 280 112 287.163 112 296C112 304.837 119.163 312 128 312C136.837 312 144 304.837 144 296Z" fill="#635316" fill-opacity="0.12"/>
<path fill-rule="evenodd" clip-rule="evenodd" d="M169.008 310.992C167.664 309.647 167.664 307.467 169.008 306.122L179.131 296L169.008 285.878C167.664 284.533 167.664 282.353 169.008 281.008C170.353 279.664 172.533 279.664 173.878 281.008L184 291.131L194.122 281.008C195.467 279.664 197.647 279.664 198.992 281.008C200.336 282.353 200.336 284.533 198.992 285.878L188.869 296L198.992 306.122C200.336 307.467 200.336 309.647 198.992 310.992C197.647 312.336 195.467 312.336 194.122 310.992L184 300.869L173.878 310.992C172.533 312.336 170.353 312.336 169.008 310.992Z" fill="#635316" fill-opacity="0.04"/>
<path fill-rule="evenodd" clip-rule="evenodd" d="M193.2 240C193.2 234.919 189.081 230.8 184 230.8C178.919 230.8 174.8 234.919 174.8 240C174.8 245.081 178.919 249.2 184 249.2C189.081 249.2 193.2 245.081 193.2 240ZM200 240C200 231.163 192.837 224 184 224C175.163 224 168 231.163 168 240C168 248.837 175.163 256 184 256C192.837 256 200 248.837 200 240Z" fill="#635316" fill-opacity="0.08"/>
<path fill-rule="evenodd" clip-rule="evenodd" d="M225.008 198.992C223.664 197.647 223.664 195.467 225.008 194.122L235.131 184L225.008 173.878C223.664 172.533 223.664 170.353 225.008 169.008C226.353 167.664 228.533 167.664 229.878 169.008L240 179.131L250.122 169.008C251.467 167.664 253.647 167.664 254.992 169.008C256.336 170.353 256.336 172.533 254.992 173.878L244.869 184L254.992 194.122C256.336 195.467 256.336 197.647 254.992 198.992C253.647 200.336 251.467 200.336 250.122 198.992L240 188.869L229.878 198.992C228.533 200.336 226.353 200.336 225.008 198.992Z" fill="#635316" fill-opacity="0.04"/>
<path fill-rule="evenodd" clip-rule="evenodd" d="M249.2 128C249.2 122.919 245.081 118.8 240 118.8C234.919 118.8 230.8 122.919 230.8 128C230.8 133.081 234.919 137.2 240 137.2C245.081 137.2 249.2 133.081 249.2 128ZM256 128C256 119.163 248.837 112 240 112C231.163 112 224 119.163 224 128C224 136.837 231.163 144 240 144C248.837 144 256 136.837 256 128Z" fill="#635316" fill-opacity="0.12"/>
<path fill-rule="evenodd" clip-rule="evenodd" d="M305.2 184C305.2 178.919 301.081 174.8 296 174.8C290.919 174.8 286.8 178.919 286.8 184C286.8 189.081 290.919 193.2 296 193.2C301.081 193.2 305.2 189.081 305.2 184ZM312 184C312 175.163 304.837 168 296 168C287.163 168 280 175.163 280 184C280 192.837 287.163 200 296 200C304.837 200 312 192.837 312 184Z" fill="#635316" fill-opacity="0.04"/>
<path fill-rule="evenodd" clip-rule="evenodd" d="M281.008 142.992C279.664 141.647 279.664 139.467 281.008 138.122L291.131 128L281.008 117.878C279.664 116.533 279.664 114.353 281.008 113.008C282.353 111.664 284.533 111.664 285.878 113.008L296 123.131L306.122 113.008C307.467 111.664 309.647 111.664 310.992 113.008C312.336 114.353 312.336 116.533 310.992 117.878L300.869 128L310.992 138.122C312.336 139.467 312.336 141.647 310.992 142.992C309.647 144.336 307.467 144.336 306.122 142.992L296 132.869L285.878 142.992C284.533 144.336 282.353 144.336 281.008 142.992Z" fill="#635316" fill-opacity="0.04"/>
<path fill-rule="evenodd" clip-rule="evenodd" d="M249.2 72C249.2 66.919 245.081 62.8 240 62.8C234.919 62.8 230.8 66.919 230.8 72C230.8 77.081 234.919 81.2 240 81.2C245.081 81.2 249.2 77.081 249.2 72ZM256 72C256 63.1634 248.837 56 240 56C231.163 56 224 63.1634 224 72C224 80.8366 231.163 88 240 88C248.837 88 256 80.8366 256 72Z" fill="#635316" fill-opacity="0.04"/>
<path fill-rule="evenodd" clip-rule="evenodd" d="M225.008 30.9916C223.664 29.647 223.664 27.467 225.008 26.1224L235.131 16L225.008 5.87763C223.664 4.53304 223.664 2.35303 225.008 1.00844C226.353 -0.336147 228.533 -0.336147 229.878 1.00844L240 11.1308L250.122 1.00844C251.467 -0.336146 253.647 -0.336146 254.992 1.00844C256.336 2.35303 256.336 4.53304 254.992 5.87763L244.869 16L254.992 26.1224C256.336 27.467 256.336 29.647 254.992 30.9916C253.647 32.3361 251.467 32.3361 250.122 30.9916L240 20.8692L229.878 30.9916C228.533 32.3361 226.353 32.3361 225.008 30.9916Z" fill="#635316" fill-opacity="0.04"/>
<path fill-rule="evenodd" clip-rule="evenodd" d="M305.2 72C305.2 66.919 301.081 62.8 296 62.8C290.919 62.8 286.8 66.919 286.8 72C286.8 77.081 290.919 81.2 296 81.2C301.081 81.2 305.2 77.081 305.2 72ZM312 72C312 63.1634 304.837 56 296 56C287.163 56 280 63.1634 280 72C280 80.8366 287.163 88 296 88C304.837 88 312 80.8366 312 72Z" fill="#635316" fill-opacity="0.12"/>
<path fill-rule="evenodd" clip-rule="evenodd" d="M281.008 30.9916C279.664 29.647 279.664 27.467 281.008 26.1224L291.131 16L281.008 5.87763C279.664 4.53304 279.664 2.35303 281.008 1.00844C282.353 -0.336147 284.533 -0.336147 285.878 1.00844L296 11.1308L306.122 1.00844C307.467 -0.336146 309.647 -0.336146 310.992 1.00844C312.336 2.35303 312.336 4.53304 310.992 5.87763L300.869 16L310.992 26.1224C312.336 27.467 312.336 29.647 310.992 30.9916C309.647 32.3361 307.467 32.3361 306.122 30.9916L296 20.8692L285.878 30.9916C284.533 32.3361 282.353 32.3361 281.008 30.9916Z" fill="#635316" fill-opacity="0.08"/>
<path fill-rule="evenodd" clip-rule="evenodd" d="M361.2 184C361.2 178.919 357.081 174.8 352 174.8C346.919 174.8 342.8 178.919 342.8 184C342.8 189.081 346.919 193.2 352 193.2C357.081 193.2 361.2 189.081 361.2 184ZM368 184C368 175.163 360.837 168 352 168C343.163 168 336 175.163 336 184C336 192.837 343.163 200 352 200C360.837 200 368 192.837 368 184Z" fill="#635316" fill-opacity="0.04"/>
<path fill-rule="evenodd" clip-rule="evenodd" d="M337.008 142.992C335.664 141.647 335.664 139.467 337.008 138.122L347.131 128L337.008 117.878C335.664 116.533 335.664 114.353 337.008 113.008C338.353 111.664 340.533 111.664 341.878 113.008L352 123.131L362.122 113.008C363.467 111.664 365.647 111.664 366.992 113.008C368.336 114.353 368.336 116.533 366.992 117.878L356.869 128L366.992 138.122C368.336 139.467 368.336 141.647 366.992 142.992C365.647 144.336 363.467 144.336 362.122 142.992L352 132.869L341.878 142.992C340.533 144.336 338.353 144.336 337.008 142.992Z" fill="#635316" fill-opacity="0.12"/>
<path fill-rule="evenodd" clip-rule="evenodd" d="M393.008 198.992C391.664 197.647 391.664 195.467 393.008 194.122L403.131 184L393.008 173.878C391.664 172.533 391.664 170.353 393.008 169.008C394.353 167.664 396.533 167.664 397.878 169.008L408 179.131L418.122 169.008C419.467 167.664 421.647 167.664 422.992 169.008C424.336 170.353 424.336 172.533 422.992 173.878L412.869 184L422.992 194.122C424.336 195.467 424.336 197.647 422.992 198.992C421.647 200.336 419.467 200.336 418.122 198.992L408 188.869L397.878 198.992C396.533 200.336 394.353 200.336 393.008 198.992Z" fill="#635316" fill-opacity="0.04"/>
<path fill-rule="evenodd" clip-rule="evenodd" d="M417.2 128C417.2 122.919 413.081 118.8 408 118.8C402.919 118.8 398.8 122.919 398.8 128C398.8 133.081 402.919 137.2 408 137.2C413.081 137.2 417.2 133.081 417.2 128ZM424 128C424 119.163 416.837 112 408 112C399.163 112 392 119.163 392 128C392 136.837 399.163 144 408 144C416.837 144 424 136.837 424 128Z" fill="#635316" fill-opacity="0.04"/>
<path fill-rule="evenodd" clip-rule="evenodd" d="M361.2 72C361.2 66.919 357.081 62.8 352 62.8C346.919 62.8 342.8 66.919 342.8 72C342.8 77.081 346.919 81.2 352 81.2C357.081 81.2 361.2 77.081 361.2 72ZM368 72C368 63.1634 360.837 56 352 56C343.163 56 336 63.1634 336 72C336 80.8366 343.163 88 352 88C360.837 88 368 80.8366 368 72Z" fill="#635316" fill-opacity="0.04"/>
<path fill-rule="evenodd" clip-rule="evenodd" d="M337.008 30.9916C335.664 29.647 335.664 27.467 337.008 26.1224L347.131 16L337.008 5.87763C335.664 4.53304 335.664 2.35303 337.008 1.00844C338.353 -0.336147 340.533 -0.336147 341.878 1.00844L352 11.1308L362.122 1.00844C363.467 -0.336146 365.647 -0.336146 366.992 1.00844C368.336 2.35303 368.336 4.53304 366.992 5.87763L356.869 16L366.992 26.1224C368.336 27.467 368.336 29.647 366.992 30.9916C365.647 32.3361 363.467 32.3361 362.122 30.9916L352 20.8692L341.878 30.9916C340.533 32.3361 338.353 32.3361 337.008 30.9916Z" fill="#635316" fill-opacity="0.04"/>
<path fill-rule="evenodd" clip-rule="evenodd" d="M393.008 86.9916C391.664 85.647 391.664 83.467 393.008 82.1224L403.131 72L393.008 61.8776C391.664 60.533 391.664 58.353 393.008 57.0084C394.353 55.6639 396.533 55.6639 397.878 57.0084L408 67.1308L418.122 57.0084C419.467 55.6639 421.647 55.6639 422.992 57.0084C424.336 58.353 424.336 60.533 422.992 61.8776L412.869 72L422.992 82.1224C424.336 83.467 424.336 85.647 422.992 86.9916C421.647 88.3361 419.467 88.3361 418.122 86.9916L408 76.8692L397.878 86.9916C396.533 88.3361 394.353 88.3361 393.008 86.9916Z" fill="#635316" fill-opacity="0.12"/>
<path fill-rule="evenodd" clip-rule="evenodd" d="M417.2 16C417.2 10.919 413.081 6.8 408 6.8C402.919 6.8 398.8 10.919 398.8 16C398.8 21.081 402.919 25.2 408 25.2C413.081 25.2 417.2 21.081 417.2 16ZM424 16C424 7.16345 416.837 1.08564e-06 408 6.99382e-07C399.163 3.13124e-07 392 7.16344 392 16C392 24.8366 399.163 32 408 32C416.837 32 424 24.8366 424 16Z" fill="#635316" fill-opacity="0.12"/>
<path fill-rule="evenodd" clip-rule="evenodd" d="M198.992 198.992C197.647 200.336 195.467 200.336 194.122 198.992L184 188.869L173.878 198.992C172.533 200.336 170.353 200.336 169.008 198.992C167.664 197.647 167.664 195.467 169.008 194.122L179.131 184L169.008 173.878C167.664 172.533 167.664 170.353 169.008 169.008C170.353 167.664 172.533 167.664 173.878 169.008L184 179.131L194.122 169.008C195.467 167.664 197.647 167.664 198.992 169.008C200.336 170.353 200.336 172.533 198.992 173.878L188.869 184L198.992 194.122C200.336 195.467 200.336 197.647 198.992 198.992Z" fill="#635316" fill-opacity="0.04"/>
<path fill-rule="evenodd" clip-rule="evenodd" d="M128 174.8C122.919 174.8 118.8 178.919 118.8 184C118.8 189.081 122.919 193.2 128 193.2C133.081 193.2 137.2 189.081 137.2 184C137.2 178.919 133.081 174.8 128 174.8ZM128 168C119.163 168 112 175.163 112 184C112 192.837 119.163 200 128 200C136.837 200 144 192.837 144 184C144 175.163 136.837 168 128 168Z" fill="#635316" fill-opacity="0.12"/>
<path fill-rule="evenodd" clip-rule="evenodd" d="M184 118.8C178.919 118.8 174.8 122.919 174.8 128C174.8 133.081 178.919 137.2 184 137.2C189.081 137.2 193.2 133.081 193.2 128C193.2 122.919 189.081 118.8 184 118.8ZM184 112C175.163 112 168 119.163 168 128C168 136.837 175.163 144 184 144C192.837 144 200 136.837 200 128C200 119.163 192.837 112 184 112Z" fill="#635316" fill-opacity="0.04"/>
<path fill-rule="evenodd" clip-rule="evenodd" d="M72 174.8C66.919 174.8 62.8 178.919 62.8 184C62.8 189.081 66.919 193.2 72 193.2C77.081 193.2 81.2 189.081 81.2 184C81.2 178.919 77.081 174.8 72 174.8ZM72 168C63.1634 168 56 175.163 56 184C56 192.837 63.1634 200 72 200C80.8366 200 88 192.837 88 184C88 175.163 80.8366 168 72 168Z" fill="#635316" fill-opacity="0.04"/>
<path fill-rule="evenodd" clip-rule="evenodd" d="M184 62.8C178.919 62.8 174.8 66.919 174.8 72C174.8 77.081 178.919 81.2 184 81.2C189.081 81.2 193.2 77.081 193.2 72C193.2 66.919 189.081 62.8 184 62.8ZM184 56C175.163 56 168 63.1634 168 72C168 80.8366 175.163 88 184 88C192.837 88 200 80.8366 200 72C200 63.1634 192.837 56 184 56Z" fill="#635316" fill-opacity="0.04"/>
<path fill-rule="evenodd" clip-rule="evenodd" d="M142.992 86.9916C141.647 88.3361 139.467 88.3361 138.122 86.9916L128 76.8692L117.878 86.9916C116.533 88.3361 114.353 88.3361 113.008 86.9916C111.664 85.647 111.664 83.467 113.008 82.1224L123.131 72L113.008 61.8776C111.664 60.533 111.664 58.353 113.008 57.0084C114.353 55.6639 116.533 55.6639 117.878 57.0084L128 67.1308L138.122 57.0084C139.467 55.6639 141.647 55.6639 142.992 57.0084C144.336 58.353 144.336 60.533 142.992 61.8776L132.869 72L142.992 82.1224C144.336 83.467 144.336 85.647 142.992 86.9916Z" fill="#635316" fill-opacity="0.04"/>
<path fill-rule="evenodd" clip-rule="evenodd" d="M198.992 30.9916C197.647 32.3361 195.467 32.3361 194.122 30.9916L184 20.8692L173.878 30.9916C172.533 32.3361 170.353 32.3361 169.008 30.9916C167.664 29.647 167.664 27.467 169.008 26.1224L179.131 16L169.008 5.87763C167.664 4.53304 167.664 2.35303 169.008 1.00844C170.353 -0.336147 172.533 -0.336147 173.878 1.00844L184 11.1308L194.122 1.00844C195.467 -0.336147 197.647 -0.336147 198.992 1.00844C200.336 2.35303 200.336 4.53304 198.992 5.87763L188.869 16L198.992 26.1224C200.336 27.467 200.336 29.647 198.992 30.9916Z" fill="#635316" fill-opacity="0.12"/>
<path fill-rule="evenodd" clip-rule="evenodd" d="M128 6.8C122.919 6.8 118.8 10.919 118.8 16C118.8 21.081 122.919 25.2 128 25.2C133.081 25.2 137.2 21.081 137.2 16C137.2 10.919 133.081 6.8 128 6.8ZM128 0C119.163 0 112 7.16344 112 16C112 24.8366 119.163 32 128 32C136.837 32 144 24.8366 144 16C144 7.16344 136.837 0 128 0Z" fill="#635316" fill-opacity="0.04"/>
<path fill-rule="evenodd" clip-rule="evenodd" d="M86.9916 30.9916C85.647 32.3361 83.467 32.3361 82.1224 30.9916L72 20.8692L61.8776 30.9916C60.533 32.3361 58.353 32.3361 57.0084 30.9916C55.6639 29.647 55.6639 27.467 57.0084 26.1224L67.1308 16L57.0084 5.87763C55.6639 4.53304 55.6639 2.35303 57.0084 1.00844C58.353 -0.336147 60.533 -0.336147 61.8776 1.00844L72 11.1308L82.1224 1.00844C83.467 -0.336147 85.647 -0.336147 86.9916 1.00844C88.3361 2.35303 88.3361 4.53304 86.9916 5.87763L76.8692 16L86.9916 26.1224C88.3361 27.467 88.3361 29.647 86.9916 30.9916Z" fill="#635316" fill-opacity="0.04"/>
</svg>
