<svg width="97" height="38" viewBox="0 0 97 38" fill="none" xmlns="http://www.w3.org/2000/svg">
<mask id="path-1-inside-1_109_1599" fill="white">
<path d="M0 4C0 1.79086 1.79086 0 4 0H93C95.2091 0 97 1.79086 97 4V34C97 36.2091 95.2091 38 93 38H4C1.79086 38 0 36.2091 0 34V4Z"/>
</mask>
<path d="M0 4C0 1.79086 1.79086 0 4 0H93C95.2091 0 97 1.79086 97 4V34C97 36.2091 95.2091 38 93 38H4C1.79086 38 0 36.2091 0 34V4Z" fill="#313253"/>
<path d="M16.48 24.14C16.0693 24.14 15.6587 24.1073 15.248 24.042C14.8373 23.986 14.45 23.8973 14.086 23.776C13.722 23.6453 13.3953 23.4867 13.106 23.3C12.938 23.188 12.8213 23.0527 12.756 22.894C12.6907 22.7353 12.6673 22.5813 12.686 22.432C12.714 22.2733 12.7747 22.138 12.868 22.026C12.9707 21.9047 13.0967 21.83 13.246 21.802C13.3953 21.774 13.5587 21.816 13.736 21.928C14.1467 22.1707 14.5807 22.348 15.038 22.46C15.4953 22.572 15.976 22.628 16.48 22.628C17.2173 22.628 17.754 22.5067 18.09 22.264C18.426 22.012 18.594 21.69 18.594 21.298C18.594 20.9713 18.4727 20.7147 18.23 20.528C17.9967 20.3413 17.5907 20.1873 17.012 20.066L15.472 19.744C14.5853 19.5573 13.9227 19.2447 13.484 18.806C13.0547 18.358 12.84 17.77 12.84 17.042C12.84 16.5847 12.9333 16.1693 13.12 15.796C13.3067 15.4227 13.568 15.1007 13.904 14.83C14.2493 14.5593 14.6553 14.354 15.122 14.214C15.598 14.0647 16.1207 13.99 16.69 13.99C17.25 13.99 17.782 14.06 18.286 14.2C18.79 14.34 19.2427 14.5453 19.644 14.816C19.7933 14.9187 19.8913 15.0447 19.938 15.194C19.994 15.3433 20.008 15.4927 19.98 15.642C19.952 15.782 19.8867 15.9033 19.784 16.006C19.6813 16.1087 19.5507 16.1693 19.392 16.188C19.2427 16.2067 19.07 16.16 18.874 16.048C18.5287 15.852 18.1787 15.712 17.824 15.628C17.4693 15.544 17.0867 15.502 16.676 15.502C16.2467 15.502 15.878 15.5627 15.57 15.684C15.262 15.8053 15.024 15.978 14.856 16.202C14.6973 16.4167 14.618 16.6733 14.618 16.972C14.618 17.308 14.73 17.5787 14.954 17.784C15.178 17.98 15.5607 18.134 16.102 18.246L17.628 18.568C18.552 18.764 19.238 19.072 19.686 19.492C20.1433 19.912 20.372 20.472 20.372 21.172C20.372 21.62 20.2787 22.026 20.092 22.39C19.9147 22.754 19.6533 23.0667 19.308 23.328C18.972 23.5893 18.566 23.79 18.09 23.93C17.614 24.07 17.0773 24.14 16.48 24.14ZM24.8097 24.14C24.203 24.14 23.6943 24.0373 23.2837 23.832C22.8823 23.6267 22.5837 23.328 22.3877 22.936C22.1917 22.5347 22.0937 22.04 22.0937 21.452V18.47H21.3657C21.1417 18.47 20.969 18.414 20.8477 18.302C20.7263 18.1807 20.6657 18.0173 20.6657 17.812C20.6657 17.5973 20.7263 17.434 20.8477 17.322C20.969 17.21 21.1417 17.154 21.3657 17.154H22.0937V15.88C22.0937 15.5907 22.1683 15.3713 22.3177 15.222C22.4763 15.0727 22.6957 14.998 22.9757 14.998C23.2557 14.998 23.4703 15.0727 23.6197 15.222C23.769 15.3713 23.8437 15.5907 23.8437 15.88V17.154H25.3277C25.5517 17.154 25.7243 17.21 25.8457 17.322C25.967 17.434 26.0277 17.5973 26.0277 17.812C26.0277 18.0173 25.967 18.1807 25.8457 18.302C25.7243 18.414 25.5517 18.47 25.3277 18.47H23.8437V21.354C23.8437 21.802 23.9417 22.138 24.1377 22.362C24.3337 22.586 24.651 22.698 25.0897 22.698C25.2483 22.698 25.3883 22.684 25.5097 22.656C25.631 22.628 25.7383 22.6093 25.8317 22.6C25.9437 22.5907 26.037 22.628 26.1117 22.712C26.1863 22.7867 26.2237 22.9453 26.2237 23.188C26.2237 23.3747 26.191 23.5427 26.1257 23.692C26.0697 23.832 25.9623 23.93 25.8037 23.986C25.6823 24.0233 25.5237 24.056 25.3277 24.084C25.1317 24.1213 24.959 24.14 24.8097 24.14ZM29.3007 24.14C28.8061 24.14 28.3627 24.0467 27.9707 23.86C27.5881 23.664 27.2847 23.4027 27.0607 23.076C26.8461 22.7493 26.7387 22.3807 26.7387 21.97C26.7387 21.466 26.8694 21.0693 27.1307 20.78C27.3921 20.4813 27.8167 20.2667 28.4047 20.136C28.9927 20.0053 29.7814 19.94 30.7707 19.94H31.4707V20.948H30.7847C30.2061 20.948 29.7441 20.976 29.3987 21.032C29.0534 21.088 28.8061 21.186 28.6567 21.326C28.5167 21.4567 28.4467 21.6433 28.4467 21.886C28.4467 22.194 28.5541 22.446 28.7687 22.642C28.9834 22.838 29.2821 22.936 29.6647 22.936C29.9727 22.936 30.2434 22.866 30.4767 22.726C30.7194 22.5767 30.9107 22.376 31.0507 22.124C31.1907 21.872 31.2607 21.5827 31.2607 21.256V19.646C31.2607 19.1793 31.1581 18.8433 30.9527 18.638C30.7474 18.4327 30.4021 18.33 29.9167 18.33C29.6461 18.33 29.3521 18.3627 29.0347 18.428C28.7267 18.4933 28.4001 18.6053 28.0547 18.764C27.8774 18.848 27.7187 18.8713 27.5787 18.834C27.4481 18.7967 27.3454 18.722 27.2707 18.61C27.1961 18.4887 27.1587 18.358 27.1587 18.218C27.1587 18.078 27.1961 17.9427 27.2707 17.812C27.3454 17.672 27.4714 17.5693 27.6487 17.504C28.0781 17.3267 28.4887 17.2007 28.8807 17.126C29.2821 17.0513 29.6461 17.014 29.9727 17.014C30.6447 17.014 31.1954 17.1167 31.6247 17.322C32.0634 17.5273 32.3901 17.84 32.6047 18.26C32.8194 18.6707 32.9267 19.2027 32.9267 19.856V23.216C32.9267 23.5053 32.8567 23.7293 32.7167 23.888C32.5767 24.0373 32.3761 24.112 32.1147 24.112C31.8534 24.112 31.6481 24.0373 31.4987 23.888C31.3587 23.7293 31.2887 23.5053 31.2887 23.216V22.544H31.4007C31.3354 22.8707 31.2047 23.1553 31.0087 23.398C30.8221 23.6313 30.5841 23.8133 30.2947 23.944C30.0054 24.0747 29.6741 24.14 29.3007 24.14ZM35.599 24.112C35.3096 24.112 35.0856 24.0373 34.927 23.888C34.7776 23.7293 34.703 23.5053 34.703 23.216V17.924C34.703 17.6347 34.7776 17.4153 34.927 17.266C35.0763 17.1167 35.2863 17.042 35.557 17.042C35.8276 17.042 36.0376 17.1167 36.187 17.266C36.3363 17.4153 36.411 17.6347 36.411 17.924V18.806H36.271C36.4016 18.246 36.6583 17.8213 37.041 17.532C37.4236 17.2427 37.9323 17.07 38.567 17.014C38.763 16.9953 38.917 17.0467 39.029 17.168C39.1503 17.28 39.2203 17.4573 39.239 17.7C39.2576 17.9333 39.2016 18.1247 39.071 18.274C38.9496 18.414 38.763 18.498 38.511 18.526L38.203 18.554C37.6336 18.61 37.2043 18.7873 36.915 19.086C36.6256 19.3753 36.481 19.786 36.481 20.318V23.216C36.481 23.5053 36.4063 23.7293 36.257 23.888C36.1076 24.0373 35.8883 24.112 35.599 24.112ZM43.7179 24.14C43.1112 24.14 42.6025 24.0373 42.1919 23.832C41.7905 23.6267 41.4919 23.328 41.2959 22.936C41.0999 22.5347 41.0019 22.04 41.0019 21.452V18.47H40.2739C40.0499 18.47 39.8772 18.414 39.7559 18.302C39.6345 18.1807 39.5739 18.0173 39.5739 17.812C39.5739 17.5973 39.6345 17.434 39.7559 17.322C39.8772 17.21 40.0499 17.154 40.2739 17.154H41.0019V15.88C41.0019 15.5907 41.0765 15.3713 41.2259 15.222C41.3845 15.0727 41.6039 14.998 41.8839 14.998C42.1639 14.998 42.3785 15.0727 42.5279 15.222C42.6772 15.3713 42.7519 15.5907 42.7519 15.88V17.154H44.2359C44.4599 17.154 44.6325 17.21 44.7539 17.322C44.8752 17.434 44.9359 17.5973 44.9359 17.812C44.9359 18.0173 44.8752 18.1807 44.7539 18.302C44.6325 18.414 44.4599 18.47 44.2359 18.47H42.7519V21.354C42.7519 21.802 42.8499 22.138 43.0459 22.362C43.2419 22.586 43.5592 22.698 43.9979 22.698C44.1565 22.698 44.2965 22.684 44.4179 22.656C44.5392 22.628 44.6465 22.6093 44.7399 22.6C44.8519 22.5907 44.9452 22.628 45.0199 22.712C45.0945 22.7867 45.1319 22.9453 45.1319 23.188C45.1319 23.3747 45.0992 23.5427 45.0339 23.692C44.9779 23.832 44.8705 23.93 44.7119 23.986C44.5905 24.0233 44.4319 24.056 44.2359 24.084C44.0399 24.1213 43.8672 24.14 43.7179 24.14ZM52.9477 26.66C52.4437 26.66 51.9537 26.6133 51.4777 26.52C51.011 26.4267 50.5864 26.282 50.2037 26.086C50.0264 25.9927 49.905 25.8807 49.8397 25.75C49.7837 25.6193 49.765 25.484 49.7837 25.344C49.8117 25.2133 49.8677 25.0967 49.9517 24.994C50.045 24.8913 50.157 24.8213 50.2877 24.784C50.4184 24.7467 50.5537 24.7653 50.6937 24.84C51.1044 25.0453 51.4917 25.176 51.8557 25.232C52.229 25.2973 52.5464 25.33 52.8077 25.33C53.433 25.33 53.8997 25.176 54.2077 24.868C54.525 24.5693 54.6837 24.1213 54.6837 23.524V22.264H54.8097C54.6697 22.74 54.3757 23.1227 53.9277 23.412C53.489 23.692 52.9897 23.832 52.4297 23.832C51.8137 23.832 51.277 23.692 50.8197 23.412C50.3624 23.1227 50.0077 22.7213 49.7557 22.208C49.5037 21.6947 49.3777 21.0973 49.3777 20.416C49.3777 19.9027 49.4477 19.4407 49.5877 19.03C49.737 18.61 49.9424 18.2507 50.2037 17.952C50.4744 17.6533 50.7964 17.4247 51.1697 17.266C51.5524 17.098 51.9724 17.014 52.4297 17.014C53.0084 17.014 53.5124 17.1587 53.9417 17.448C54.3804 17.728 54.665 18.1013 54.7957 18.568L54.6557 18.918V17.924C54.6557 17.6347 54.7304 17.4153 54.8797 17.266C55.0384 17.1167 55.253 17.042 55.5237 17.042C55.8037 17.042 56.0184 17.1167 56.1677 17.266C56.317 17.4153 56.3917 17.6347 56.3917 17.924V23.314C56.3917 24.4247 56.0977 25.26 55.5097 25.82C54.9217 26.38 54.0677 26.66 52.9477 26.66ZM52.9057 22.502C53.2697 22.502 53.5824 22.418 53.8437 22.25C54.105 22.082 54.3057 21.844 54.4457 21.536C54.595 21.2187 54.6697 20.8453 54.6697 20.416C54.6697 19.772 54.511 19.268 54.1937 18.904C53.8764 18.5307 53.447 18.344 52.9057 18.344C52.5417 18.344 52.229 18.428 51.9677 18.596C51.7064 18.764 51.501 19.002 51.3517 19.31C51.2117 19.618 51.1417 19.9867 51.1417 20.416C51.1417 21.06 51.3004 21.5687 51.6177 21.942C51.935 22.3153 52.3644 22.502 52.9057 22.502ZM60.4589 24.14C59.9643 24.14 59.5209 24.0467 59.1289 23.86C58.7463 23.664 58.4429 23.4027 58.2189 23.076C58.0043 22.7493 57.8969 22.3807 57.8969 21.97C57.8969 21.466 58.0276 21.0693 58.2889 20.78C58.5503 20.4813 58.9749 20.2667 59.5629 20.136C60.1509 20.0053 60.9396 19.94 61.9289 19.94H62.6289V20.948H61.9429C61.3643 20.948 60.9023 20.976 60.5569 21.032C60.2116 21.088 59.9643 21.186 59.8149 21.326C59.6749 21.4567 59.6049 21.6433 59.6049 21.886C59.6049 22.194 59.7123 22.446 59.9269 22.642C60.1416 22.838 60.4403 22.936 60.8229 22.936C61.1309 22.936 61.4016 22.866 61.6349 22.726C61.8776 22.5767 62.0689 22.376 62.2089 22.124C62.3489 21.872 62.4189 21.5827 62.4189 21.256V19.646C62.4189 19.1793 62.3163 18.8433 62.1109 18.638C61.9056 18.4327 61.5603 18.33 61.0749 18.33C60.8043 18.33 60.5103 18.3627 60.1929 18.428C59.8849 18.4933 59.5583 18.6053 59.2129 18.764C59.0356 18.848 58.8769 18.8713 58.7369 18.834C58.6063 18.7967 58.5036 18.722 58.4289 18.61C58.3543 18.4887 58.3169 18.358 58.3169 18.218C58.3169 18.078 58.3543 17.9427 58.4289 17.812C58.5036 17.672 58.6296 17.5693 58.8069 17.504C59.2363 17.3267 59.6469 17.2007 60.0389 17.126C60.4403 17.0513 60.8043 17.014 61.1309 17.014C61.8029 17.014 62.3536 17.1167 62.7829 17.322C63.2216 17.5273 63.5483 17.84 63.7629 18.26C63.9776 18.6707 64.0849 19.2027 64.0849 19.856V23.216C64.0849 23.5053 64.0149 23.7293 63.8749 23.888C63.7349 24.0373 63.5343 24.112 63.2729 24.112C63.0116 24.112 62.8063 24.0373 62.6569 23.888C62.5169 23.7293 62.4469 23.5053 62.4469 23.216V22.544H62.5589C62.4936 22.8707 62.3629 23.1553 62.1669 23.398C61.9803 23.6313 61.7423 23.8133 61.4529 23.944C61.1636 24.0747 60.8323 24.14 60.4589 24.14ZM66.7572 24.112C66.4772 24.112 66.2625 24.0373 66.1132 23.888C65.9638 23.7293 65.8892 23.5053 65.8892 23.216V17.924C65.8892 17.6347 65.9638 17.4153 66.1132 17.266C66.2625 17.1167 66.4725 17.042 66.7432 17.042C67.0138 17.042 67.2238 17.1167 67.3732 17.266C67.5225 17.4153 67.5972 17.6347 67.5972 17.924V18.946L67.4432 18.526C67.6298 18.0593 67.9192 17.6907 68.3112 17.42C68.7032 17.1493 69.1698 17.014 69.7112 17.014C70.2618 17.014 70.7145 17.1447 71.0692 17.406C71.4238 17.6673 71.6712 18.0687 71.8112 18.61H71.6152C71.8018 18.1153 72.1098 17.728 72.5392 17.448C72.9685 17.1587 73.4632 17.014 74.0232 17.014C74.5458 17.014 74.9752 17.1167 75.3112 17.322C75.6565 17.5273 75.9132 17.84 76.0812 18.26C76.2492 18.6707 76.3332 19.1933 76.3332 19.828V23.216C76.3332 23.5053 76.2538 23.7293 76.0952 23.888C75.9458 24.0373 75.7312 24.112 75.4512 24.112C75.1712 24.112 74.9565 24.0373 74.8072 23.888C74.6578 23.7293 74.5832 23.5053 74.5832 23.216V19.898C74.5832 19.3753 74.4945 18.9927 74.3172 18.75C74.1492 18.5073 73.8598 18.386 73.4492 18.386C72.9918 18.386 72.6325 18.5493 72.3712 18.876C72.1098 19.1933 71.9792 19.6367 71.9792 20.206V23.216C71.9792 23.5053 71.9045 23.7293 71.7552 23.888C71.6058 24.0373 71.3912 24.112 71.1112 24.112C70.8312 24.112 70.6118 24.0373 70.4532 23.888C70.3038 23.7293 70.2292 23.5053 70.2292 23.216V19.898C70.2292 19.3753 70.1405 18.9927 69.9632 18.75C69.7952 18.5073 69.5105 18.386 69.1092 18.386C68.6518 18.386 68.2925 18.5493 68.0312 18.876C67.7698 19.1933 67.6392 19.6367 67.6392 20.206V23.216C67.6392 23.8133 67.3452 24.112 66.7572 24.112ZM81.5125 24.14C80.7378 24.14 80.0705 23.9953 79.5105 23.706C78.9505 23.4167 78.5165 23.006 78.2085 22.474C77.9098 21.942 77.7605 21.312 77.7605 20.584C77.7605 19.8747 77.9052 19.254 78.1945 18.722C78.4932 18.19 78.8992 17.7747 79.4125 17.476C79.9352 17.168 80.5278 17.014 81.1905 17.014C81.6758 17.014 82.1098 17.0933 82.4925 17.252C82.8845 17.4107 83.2158 17.6393 83.4865 17.938C83.7665 18.2367 83.9765 18.6007 84.1165 19.03C84.2658 19.45 84.3405 19.926 84.3405 20.458C84.3405 20.626 84.2798 20.7567 84.1585 20.85C84.0465 20.934 83.8832 20.976 83.6685 20.976H79.1745V19.968H83.1085L82.8845 20.178C82.8845 19.7487 82.8192 19.3893 82.6885 19.1C82.5672 18.8107 82.3852 18.5913 82.1425 18.442C81.9092 18.2833 81.6152 18.204 81.2605 18.204C80.8685 18.204 80.5325 18.2973 80.2525 18.484C79.9818 18.6613 79.7718 18.918 79.6225 19.254C79.4825 19.5807 79.4125 19.9727 79.4125 20.43V20.528C79.4125 21.2933 79.5898 21.8673 79.9445 22.25C80.3085 22.6233 80.8405 22.81 81.5405 22.81C81.7832 22.81 82.0538 22.782 82.3525 22.726C82.6605 22.6607 82.9498 22.5533 83.2205 22.404C83.4165 22.292 83.5892 22.2453 83.7385 22.264C83.8878 22.2733 84.0045 22.3247 84.0885 22.418C84.1818 22.5113 84.2378 22.628 84.2565 22.768C84.2752 22.8987 84.2472 23.034 84.1725 23.174C84.1072 23.314 83.9905 23.4353 83.8225 23.538C83.4958 23.7433 83.1178 23.8973 82.6885 24C82.2685 24.0933 81.8765 24.14 81.5125 24.14Z" fill="white"/>
<path d="M0 0H97H0ZM97 34C97 37.866 93.866 41 90 41H7C3.13401 41 0 37.866 0 34C0 34.5523 1.79086 35 4 35H93C95.2091 35 97 34.5523 97 34ZM0 38V0V38ZM97 0V38V0Z" fill="#08091A" mask="url(#path-1-inside-1_109_1599)"/>
</svg>
