<svg width="21" height="21" viewBox="0 0 21 21" fill="none" xmlns="http://www.w3.org/2000/svg">
<path d="M10.5 14.4375C14.1244 14.4375 17.0625 11.4994 17.0625 7.875C17.0625 4.25063 14.1244 1.3125 10.5 1.3125C6.87563 1.3125 3.9375 4.25063 3.9375 7.875C3.9375 11.4994 6.87563 14.4375 10.5 14.4375Z" stroke="#313253" stroke-linecap="round" stroke-linejoin="round"/>
<path d="M10.5 11.8125C12.6746 11.8125 14.4375 10.0496 14.4375 7.875C14.4375 5.70038 12.6746 3.9375 10.5 3.9375C8.32538 3.9375 6.5625 5.70038 6.5625 7.875C6.5625 10.0496 8.32538 11.8125 10.5 11.8125Z" stroke="#313253" stroke-linecap="round" stroke-linejoin="round"/>
<path d="M14.4375 13.125V19.6875L10.5 17.7188L6.5625 19.6875V13.125" stroke="#313253" stroke-linecap="round" stroke-linejoin="round"/>
</svg>
